# xmcd CD database file
#
# Track frame offsets:
#	183
#	12655
#	26043
#	38563
#	50973
#	61953
#	75408
#	87400
#	101650
#	115638
#	128933
#	141945
#	156295
#	170560
#	185890
#	198615
#	212023
#	225155
#	238273
#	251895
#	264660
#	277793
#
# Disc length: 3882 seconds
#
# Revision: 0
# Processed by: cddbd v1.5.2PL0 Copyright (c) Steve Scherf et al.
# Submitted via: CDex 1.70beta1
#
DISCID=410f2816
DTITLE=Johnny Dodds - Johnny Dodds 1926-1940 Part 1
DYEAR=1900
DGENRE=Jazz
TTITLE0=Teddy Peters - What A Man
TTITLE1=Edonia Henderson - Who's Gonna Do Your Lovin'
TTITLE2=Nobody Else Will Do
TTITLE3=Blyth's Washboard Band - Bohunkus Blues
TTITLE4=Buddy Burtons Jazz
TTITLE5=Jimmy Bertrand's Washboard Wizards - Little Bits
TTITLE6=Struggling
TTITLE7=New Orleans Washborders - Perdido Street Blues
TTITLE8=Gate Mouth
TTITLE9=Too Tight
TTITLE10=Papa Did
TTITLE11=New Orleans Bootblacks - Mixed Salad
TTITLE12=I Can't Say
TTITLE13=Flat Foot
TTITLE14=Mad Dog
TTITLE15=Jimmie Blyth and His Ragamuffins - Messin' Around 1
TTITLE16=Messin' Around 2
TTITLE17=Adams's Apple
TTITLE18=Junie Cobs Hometown Band - East Coast Trot
TTITLE19=Chicago Buzz
TTITLE20=Jimmie Bertrands Washboard Wizards - Idle Hour Special
TTITLE21=47th Street Stomp
EXTD=
EXTT0=
EXTT1=
EXTT2=
EXTT3=
EXTT4=
EXTT5=
EXTT6=
EXTT7=
EXTT8=
EXTT9=
EXTT10=
EXTT11=
EXTT12=
EXTT13=
EXTT14=
EXTT15=
EXTT16=
EXTT17=
EXTT18=
EXTT19=
EXTT20=
EXTT21=
PLAYORDER=
